#!OML:ASF G:\JayActor3\Patient Classification 1\Patient 1\Session 6\male.ASF
:FULLY-SPECIFIED
:DEGREES
1089
root 5.51651 16.4717 0.331445 176.19 -44.8869 -175.981
lowerback -0.70822 -1.13889 2.48641
upperback 3.98831 -1.73614 0.855614
thorax 4.46484 -0.833945 -0.591004
lowerneck -11.3023 0.215026 0.700406
upperneck 32.3075 -1.25308 -1.80023
head 12.5568 -1.3851 -1.13798
rclavicle -2.18927e-014 -1.21134e-014
rhumerus -40.167 24.1818 -95.5247
rradius 92.5522
rwrist -54.7045
rhand -21.1487 -13.4282
rfingers 7.12502
rthumb 5.23073 -43.3436
lclavicle -2.18927e-014 -1.21134e-014
lhumerus -27.2695 2.55914 83.9544
lradius 22.9205
lwrist 13.4215
lhand -15.0634 10.5257
lfingers 7.12502
lthumb 11.1036 40.212
rfemur -12.3072 6.3968 21.7004
rtibia 35.0375
rfoot -21.6406 -9.05831
rtoes 0.725125
lfemur -3.20684 6.92516 -15.949
ltibia 22.5348
lfoot -18.0153 8.90183
ltoes -3.51409
1090
root 5.51389 16.4712 0.331623 176.154 -44.9122 -175.961
lowerback -0.710816 -1.13648 2.50771
upperback 4.00185 -1.7345 0.852606
thorax 4.47988 -0.832269 -0.606184
lowerneck -11.3099 0.2106 0.692688
upperneck 32.303 -1.2572 -1.79531
head 12.5565 -1.38654 -1.13516
rclavicle 6.69842e-014 -1.55301e-015
rhumerus -40.1484 24.188 -95.5346
rradius 92.5513
rwrist -54.733
rhand -20.9236 -13.4438
rfingers 7.12502
rthumb 5.44815 -43.3538
lclavicle 6.69842e-014 -1.55301e-015
lhumerus -27.2294 2.37668 84.0424
lradius 23.177
lwrist 13.6124
lhand -15.0864 10.5451
lfingers 7.12502
lthumb 11.0814 40.2325
rfemur -12.2632 6.38238 21.7108
rtibia 35.0173
rfoot -21.6443 -9.073
rtoes 0.70521
lfemur -3.19851 6.91883 -15.9384
ltibia 22.5663
lfoot -18.0304 8.88529
ltoes -3.53326
1091
root 5.51131 16.4706 0.331746 176.109 -44.9314 -175.924
lowerback -0.707203 -1.13193 2.54103
upperback 4.00981 -1.73004 0.85299
thorax 4.48546 -0.828925 -0.624227
lowerneck -11.3122 0.206341 0.684742
upperneck 32.3006 -1.26247 -1.78832
head 12.5561 -1.38853 -1.1317
rclavicle -7.05546e-014 9.81499e-015
rhumerus -40.1323 24.1912 -95.5456
rradius 92.5449
rwrist -54.756
rhand -20.342 -13.505
rfingers 7.12502
rthumb 6.00966 -43.3998
lclavicle -7.05546e-014 9.81499e-015
lhumerus -27.2007 2.18997 84.1317
lradius 23.4379
lwrist 13.8033
lhand -15.113 10.5505
lfingers 7.12502
lthumb 11.0558 40.2393
rfemur -12.2197 6.37156 21.7342
rtibia 34.9944
rfoot -21.6469 -9.08639
rtoes 0.688327
lfemur -3.19171 6.91449 -15.9148
ltibia 22.6002
lfoot -18.047 8.8709
ltoes -3.55771
1092
root 5.50879 16.47 0.331845 176.058 -44.9499 -175.88
lowerback -0.695783 -1.12905 2.57848
upperback 4.01091 -1.72745 0.856419
thorax 4.47937 -0.826542 -0.641237
lowerneck -11.306 0.203903 0.67678
upperneck 32.3 -1.2664 -1.78044
head 12.5546 -1.3902 -1.12773
rclavicle -3.12185e-014 8.89561e-015
rhumerus -40.1265 24.1963 -95.5601
rradius 92.5356
rwrist -54.7685
rhand -19.5125 -13.5988
rfingers 7.12502
rthumb 6.81039 -43.4693
lclavicle -3.12185e-014 8.89561e-015
lhumerus -27.1845 2.01058 84.2191
lradius 23.7009
lwrist 13.9894
lhand -15.1335 10.556
lfingers 7.12502
lthumb 11.036 40.2459
rfemur -12.1769 6.36381 21.7644
rtibia 34.9716
rfoot -21.6519 -9.09747
rtoes 0.692914
lfemur -3.18521 6.91017 -15.8846
ltibia 22.6327
lfoot -18.0629 8.85695
ltoes -3.58189
1093
root 5.50621 16.4694 0.331949 176.016 -44.9684 -175.85
lowerback -0.681843 -1.12639 2.60708
upperback 4.01135 -1.72454 0.856782
thorax 4.47129 -0.824257 -0.656381
lowerneck -11.3 0.201588 0.670019
upperneck 32.3008 -1.27109 -1.77131
head 12.5536 -1.39198 -1.12364
rclavicle 1.86516e-014 -6.96989e-015
rhumerus -40.1224 24.2018 -95.5751
rradius 92.5273
rwrist -54.7773
rhand -18.8161 -13.6785
rfingers 7.12502
rthumb 7.48262 -43.5261
lclavicle 1.86516e-014 -6.96989e-015
lhumerus -27.1702 1.83125 84.3056
lradius 23.9646
lwrist 14.1743
lhand -15.154 10.5617
lfingers 7.12502
lthumb 11.0162 40.2526
rfemur -12.1325 6.35085 21.7823
rtibia 34.9486
rfoot -21.6557 -9.10311
rtoes 0.694795
lfemur -3.17716 6.90056 -15.8668
ltibia 22.6668
lfoot -18.0824 8.84868
ltoes -3.60192
1094
root 5.50376 16.4688 0.332052 175.978 -44.9873 -175.822
lowerback -0.661408 -1.1245 2.63394
upperback 4.00491 -1.72195 0.857515
thorax 4.45238 -0.822283 -0.669935
lowerneck -11.2892 0.199738 0.665068
upperneck 32.3053 -1.27649 -1.7625
head 12.5533 -1.39425 -1.12019
rclavicle 2.42378e-014 3.52843e-015
rhumerus -40.1302 24.2068 -95.5939
rradius 92.5215
rwrist -54.7816
rhand -18.375 -13.7301
rfingers 7.12502
rthumb 7.90839 -43.5621
lclavicle 2.42378e-014 3.52843e-015
lhumerus -27.1657 1.654 84.3908
lradius 24.226
lwrist 14.3547
lhand -15.1801 10.5556
lfingers 7.12502
lthumb 10.991 40.2478
rfemur -12.091 6.33791 21.799
rtibia 34.9253
rfoot -21.659 -9.1085
rtoes 0.696448
lfemur -3.17332 6.88808 -15.8505
ltibia 22.7028
lfoot -18.103 8.84123
ltoes -3.61219
1095
root 5.50145 16.4684 0.332113 175.941 -45.0055 -175.792
lowerback -0.649887 -1.12221 2.66428
upperback 4.00317 -1.71942 0.856735
thorax 4.44333 -0.820073 -0.687271
lowerneck -11.2843 0.197173 0.663665
upperneck 32.307 -1.28298 -1.75342
head 12.5529 -1.3962 -1.11734
rclavicle 3.06113e-014 -7.00716e-015
rhumerus -40.1314 24.2107 -95.612
rradius 92.5195
rwrist -54.7817
rhand -18.1485 -13.7584
rfingers 7.12502
rthumb 8.12705 -43.5822
lclavicle 3.06113e-014 -7.00716e-015
lhumerus -27.151 1.46484 84.4763
lradius 24.4831
lwrist 14.5411
lhand -15.2064 10.5517
lfingers 7.12502
lthumb 10.9656 40.2453
rfemur -12.0523 6.32661 21.8171
rtibia 34.9007
rfoot -21.6603 -9.1158
rtoes 0.698903
lfemur -3.17521 6.87415 -15.833
ltibia 22.7434
lfoot -18.1256 8.83527
ltoes -3.61726
1096
root 5.49944 16.4682 0.332168 175.899 -45.0226 -175.746
lowerback -0.640281 -1.12131 2.70273
upperback 3.99758 -1.71906 0.860851
thorax 4.43123 -0.818783 -0.704175
lowerneck -11.2783 0.195428 0.662641
upperneck 32.3093 -1.28827 -1.74542
head 12.5526 -1.39782 -1.11483
rclavicle -6.50709e-014 4.72114e-016
rhumerus -40.1406 24.2177 -95.6319
rradius 92.5224
rwrist -54.7795
rhand -18.1909 -13.7555
rfingers 7.12502
rthumb 8.08611 -43.5808
lclavicle -6.50709e-014 4.72114e-016
lhumerus -27.1361 1.28846 84.5585
lradius 24.731
lwrist 14.7155
lhand -15.2366 10.5412
lfingers 7.12502
lthumb 10.9365 40.2364
rfemur -12.0207 6.32086 21.8485
rtibia 34.8738
rfoot -21.6601 -9.12815
rtoes 0.701459
lfemur -3.18897 6.85705 -15.8029
ltibia 22.7897
lfoot -18.1495 8.83081
ltoes -3.61732
1097
root 5.49783 16.468 0.332148 175.847 -45.0382 -175.673
lowerback -0.640941 -1.12021 2.75871
upperback 3.99255 -1.71968 0.870539
thorax 4.42526 -0.817407 -0.725421
lowerneck -11.2767 0.193632 0.663245
upperneck 32.3097 -1.29305 -1.73852
head 12.5524 -1.39892 -1.11292
rclavicle -5.8115e-014 3.91357e-015
rhumerus -40.1471 24.2249 -95.6514
rradius 92.5295
rwrist -54.7772
rhand -18.1881 -13.7531
rfingers 7.12502
rthumb 8.08878 -43.5782
lclavicle -5.8115e-014 3.91357e-015
lhumerus -27.116 1.10578 84.6414
lradius 24.973
lwrist 14.8883
lhand -15.2696 10.5306
lfingers 7.12502
lthumb 10.9047 40.2274
rfemur -11.9987 6.32288 21.9024
rtibia 34.8439
rfoot -21.6598 -9.14589
rtoes 0.716228
lfemur -3.2177 6.84489 -15.7502
ltibia 22.8423
lfoot -18.1723 8.82018
ltoes -3.6116
1098
root 5.49626 16.468 0.332062 175.803 -45.0515 -175.611
lowerback -0.646582 -1.11903 2.80644
upperback 3.99052 -1.7202 0.879058
thorax 4.42544 -0.816178 -0.743419
lowerneck -11.2786 0.192774 0.664907
upperneck 32.3071 -1.29545 -1.73313
head 12.5517 -1.39878 -1.11138
rclavicle 1.49485e-013 -2.7805e-014
rhumerus -40.1523 24.2337 -95.6686
rradius 92.542
rwrist -54.7768
rhand -18.1794 -13.7498
rfingers 7.12502
rthumb 8.0972 -43.5746
lclavicle 1.49485e-013 -2.7805e-014
lhumerus -27.0896 0.927315 84.7229
lradius 25.2071
lwrist 15.0544
lhand -15.2971 10.5277
lfingers 7.12502
lthumb 10.8782 40.2259
rfemur -11.9788 6.32542 21.9484
rtibia 34.8147
rfoot -21.6586 -9.16186
rtoes 0.733002
lfemur -3.24722 6.83047 -15.7063
ltibia 22.895
lfoot -18.1946 8.81652
ltoes -3.61111
